<?xml version="1.0" ?><svg id="Layer_1" style="enable-background:new 0 0 512 512;" version="1.1" viewBox="0 0 512 512" xml:space="preserve" xmlns="http://www.w3.org/2000/svg" xmlns:xlink="http://www.w3.org/1999/xlink"><style type="text/css">
	.st0{fill:#BB0D48;}
	.st1{fill:#9E1248;}
	.st2{fill:#961248;}
	.st3{fill:#891041;}
	.st4{fill:#FB8A52;}
	.st5{fill:#DD7547;}
	.st6{fill:#D67047;}
	.st7{fill:#D36B42;}
	.st8{fill:#5CB8CD;}
	.st9{fill:#328C9B;}
	.st10{fill:#2D8891;}
	.st11{fill:#287B84;}
	.st12{fill:#152D39;}
	.st13{fill:#1C353F;}
	.st14{fill:#18323A;}
	.st15{fill:#132B33;}
	.st16{fill:#FFFFFF;}
</style><g><g><g><g><path class="st0" d="M375.7,490.8H117.1c-21.5,0-38.8-17.4-38.8-38.8v0c0-21.5,17.4-38.8,38.8-38.8h258.6V490.8z      " id="XMLID_40_"/></g><g><g><polygon class="st1" id="XMLID_39_" points="399.9,397.8 433.8,451.9 366.1,451.9 333.7,397.8      "/><polygon class="st2" id="XMLID_38_" points="399.9,506 433.8,451.9 366.1,451.9 333.7,506      "/></g><path class="st3" d="M333.7,413.1h9.1l-9.1-15.2C333.7,397.8,326.5,398.7,333.7,413.1z" id="XMLID_37_"/><path class="st3" d="M333.7,490.8h9.1l-9.1,15.2C333.7,506,326.5,505.2,333.7,490.8z" id="XMLID_36_"/></g></g><g><g><g id="XMLID_90_"><g id="XMLID_91_"><path class="st4" d="M136.3,360.2h258.6c21.5,0,38.8-17.4,38.8-38.8v0c0-21.5-17.4-38.8-38.8-38.8H136.3V360.2        z" id="XMLID_92_"/></g></g></g><g><g><polygon class="st5" id="XMLID_31_" points="112.1,267.2 78.2,321.3 145.9,321.3 178.3,267.2      "/><polygon class="st6" id="XMLID_27_" points="112.1,375.4 78.2,321.3 145.9,321.3 178.3,375.4      "/></g><path class="st7" d="M178.3,282.5h-9.1l9.1-15.2C178.3,267.2,185.5,268,178.3,282.5z" id="XMLID_23_"/><path class="st7" d="M178.3,360.2h-9.1l9.1,15.2C178.3,375.4,185.5,374.6,178.3,360.2z" id="XMLID_19_"/></g></g><g><g><g id="XMLID_93_"><g id="XMLID_94_"><path class="st8" d="M375.7,229.5H117.1c-21.5,0-38.8-17.4-38.8-38.8v0c0-21.5,17.4-38.8,38.8-38.8h258.6        V229.5z" id="XMLID_95_"/></g></g></g><g><g><polygon class="st9" id="XMLID_17_" points="399.9,136.6 433.8,190.7 366.1,190.7 333.7,136.6      "/><polygon class="st10" id="XMLID_16_" points="399.9,244.8 433.8,190.7 366.1,190.7 333.7,244.8      "/></g><path class="st11" d="M333.7,151.8h9.1l-9.1-15.2C333.7,136.6,326.5,137.4,333.7,151.8z" id="XMLID_15_"/><path class="st11" d="M333.7,229.5h9.1l-9.1,15.2C333.7,244.8,326.5,244,333.7,229.5z" id="XMLID_14_"/></g></g><g><g><g id="XMLID_96_"><g id="XMLID_97_"><path class="st12" d="M136.3,98.9h258.6c21.5,0,38.8-17.4,38.8-38.8v0c0-21.5-17.4-38.8-38.8-38.8H136.3V98.9z        " id="XMLID_98_"/></g></g></g><g><g><polygon class="st13" id="XMLID_12_" points="112.1,6 78.2,60.1 145.9,60.1 178.3,6      "/><polygon class="st14" id="XMLID_11_" points="112.1,114.2 78.2,60.1 145.9,60.1 178.3,114.2      "/></g><path class="st15" d="M178.3,21.2h-9.1L178.3,6C178.3,6,185.5,6.8,178.3,21.2z" id="XMLID_10_"/><path class="st15" d="M178.3,98.9h-9.1l9.1,15.2C178.3,114.2,185.5,113.3,178.3,98.9z" id="XMLID_9_"/></g></g></g><path class="st16" d="M393.9,64.8h-11.3l-2.7,7.8h-4.2l10.9-30.1h3.5l10.6,30.1h-4.2L393.9,64.8z M383.7,61.4h9l-4.4-12.9h-0.1   L383.7,61.4z"/><path class="st16" d="M107.9,206.9v-34.4h11.2c3.6,0,6.4,0.8,8.4,2.3c2,1.6,3,3.9,3,7c0,1.5-0.5,2.8-1.4,4   c-0.9,1.2-2.1,2.1-3.6,2.7c2.3,0.3,4,1.3,5.3,2.9c1.3,1.6,2,3.6,2,5.8c0,3.1-1,5.6-3.1,7.2c-2,1.7-4.8,2.5-8.3,2.5H107.9z    M112.5,187.1h7.5c1.7,0,3.1-0.5,4.2-1.4c1.1-1,1.6-2.3,1.6-4c0-1.9-0.6-3.2-1.8-4.2c-1.2-0.9-2.9-1.4-5.1-1.4h-6.6V187.1z    M112.5,190.8v12.5h9c2.1,0,3.8-0.5,4.9-1.6c1.2-1,1.8-2.5,1.8-4.5c0-1.9-0.6-3.4-1.8-4.6c-1.2-1.2-2.8-1.8-4.8-1.9h-0.3H112.5z"/><path class="st16" d="M406.5,328.1l0,0.1c0.1,3.1-1,5.7-3.3,7.8c-2.3,2.1-5.2,3.2-8.9,3.2c-3.8,0-6.8-1.3-9.2-4   c-2.4-2.7-3.6-6.1-3.6-10.2v-5.9c0-4.1,1.2-7.5,3.6-10.2c2.4-2.7,5.4-4,9.2-4c3.8,0,6.8,1,9,3c2.2,2,3.3,4.7,3.2,8l0,0.1h-4.3   c0-2.3-0.7-4.2-2.1-5.5c-1.4-1.4-3.3-2-5.8-2c-2.5,0-4.5,1-6,3c-1.5,2-2.2,4.5-2.2,7.5v6c0,3,0.7,5.6,2.2,7.6c1.5,2,3.5,3,6,3   c2.5,0,4.4-0.7,5.8-2c1.4-1.3,2.1-3.2,2.1-5.6H406.5z"/><path class="st16" d="M114.7,468.6v-33.4h10.5c4.4,0,7.9,1.3,10.5,4c2.7,2.7,4,6.2,4,10.4v4.6c0,4.3-1.3,7.7-4,10.4   c-2.7,2.7-6.2,4-10.5,4H114.7z M119.2,438.8v26.3h6c3.1,0,5.5-1,7.3-3.1c1.8-2,2.7-4.6,2.7-7.8v-4.6c0-3.1-0.9-5.7-2.7-7.8   c-1.8-2-4.2-3.1-7.3-3.1H119.2z"/></g></svg>