<?xml version="1.0" encoding="utf-8"?>
<!-- Generator: Adobe Illustrator 15.0.0, SVG Export Plug-In . SVG Version: 6.00 Build 0)  -->
<!DOCTYPE svg PUBLIC "-//W3C//DTD SVG 1.1//EN" "http://www.w3.org/Graphics/SVG/1.1/DTD/svg11.dtd">
<svg version="1.1" id="Layer_1" xmlns="http://www.w3.org/2000/svg" xmlns:xlink="http://www.w3.org/1999/xlink" x="0px" y="0px"
	 width="743px" height="301px" viewBox="0 0 743 301" enable-background="new 0 0 743 301" xml:space="preserve">
<g id="Workspace2">
	<g>
		<g>
			<g>
				<polygon fill="#FFFFFF" points="117.03,299.5 99.03,299.5 96.03,233.5 120.03,233.5 				"/>
				<path fill="#CDD0E0" d="M118.464,301H97.597l-3.136-69h27.14L118.464,301z M100.464,298h15.133l2.864-63H97.6L100.464,298z"/>
			</g>
			<polygon fill="#CDD0E0" points="96.03,236.5 97.212,262.5 118.849,262.5 120.03,236.5 			"/>
		</g>
		<g>
			<g>
				<polygon fill="#FFFFFF" points="644.03,299.5 626.03,299.5 623.03,233.5 647.03,233.5 				"/>
				<path fill="#CDD0E0" d="M645.464,301h-20.867l-3.136-69H648.6L645.464,301z M627.464,298h15.133l2.864-63H624.6L627.464,298z"/>
			</g>
			<polygon fill="#CDD0E0" points="623.03,236.5 624.212,262.5 645.849,262.5 647.03,236.5 			"/>
		</g>
		<g>
			<rect x="1.5" y="220.5" fill="#FFFFFF" width="740" height="26"/>
			<path fill="#CDD0E0" d="M743,248H0v-29h743V248z M3,245h737v-23H3V245z"/>
		</g>
	</g>
	<g>
		<path fill="#271F3E" d="M532.5,189.5c0,11.046-8.955,20-20,20h-282c-11.046,0-20-8.954-20-20v-168c0-11.046,8.954-20,20-20h282
			c11.045,0,20,8.954,20,20V189.5z"/>
		<path fill="#CDD0E0" d="M512.5,211h-282c-11.855,0-21.5-9.645-21.5-21.5v-168C209,9.645,218.645,0,230.5,0h282
			C524.355,0,534,9.645,534,21.5v168C534,201.355,524.355,211,512.5,211z M230.5,3C220.299,3,212,11.299,212,21.5v168
			c0,10.201,8.299,18.5,18.5,18.5h282c10.201,0,18.5-8.299,18.5-18.5v-168C531,11.299,522.701,3,512.5,3H230.5z"/>
	</g>
	<g>
		<linearGradient id="SVGID_1_" gradientUnits="userSpaceOnUse" x1="257.0845" y1="217.084" x2="485.9175" y2="-11.749">
			<stop  offset="0" style="stop-color:#F89E71"/>
			<stop  offset="1" style="stop-color:#F16B90"/>
		</linearGradient>
		<rect x="224.5" y="20.833" fill="url(#SVGID_1_)" width="294" height="163.667"/>
		<path fill="#CDD0E0" d="M520,186H223V19.333h297V186z M226,183h291V22.333H226V183z"/>
	</g>
	<g>
		<g>
			<polygon fill="#FFFFFF" points="574.25,214.5 555.25,219.5 187.25,219.5 168.25,214.5 168.25,202.5 574.25,202.5 			"/>
			<path fill="#CDD0E0" d="M555.444,221l-368.576-0.049l-20.119-5.295V201h409v14.656L555.444,221z M187.445,218h367.611
				l17.694-4.656V204h-403v9.344L187.445,218z"/>
		</g>
		<polygon fill="#CDD0E0" points="169.25,213.5 187.25,219.5 555.25,219.5 574.75,213.5 		"/>
	</g>
	<path fill="#CDD0E0" d="M404.688,204.667c0,1.519-0.615,2.75-1.373,2.75h-63.63c-0.759,0-1.374-1.231-1.374-2.75l0,0
		c0-1.519,0.615-2.75,1.374-2.75h63.63C404.073,201.917,404.688,203.148,404.688,204.667L404.688,204.667z"/>
	<g>
		<rect x="368.216" y="78.951" fill="#5E4B8B" width="14" height="14"/>
		<path fill="#CDD0E0" d="M383.716,94.451h-17v-17h17V94.451z M369.716,91.451h11v-11h-11V91.451z"/>
	</g>
	<g>
		<g>
			<rect x="296.215" y="83.951" fill="#271F3E" width="79" height="79"/>
			<path fill="#CDD0E0" d="M376.716,164.451h-82v-82h82V164.451z M297.715,161.451h76v-76h-76V161.451z"/>
		</g>
		<g>
			<rect x="366.252" y="43.304" fill="#FFFFFF" width="79" height="79"/>
			<path fill="#CDD0E0" d="M446.752,123.804h-82v-82h82V123.804z M367.752,120.804h76v-76h-76V120.804z"/>
		</g>
		<g>
			<path fill="#271F3E" d="M393.536,92.519l-2.483,8.952h-8.124l10.607-34.875h10.349l10.865,34.875h-8.537l-2.69-8.952H393.536z
				 M402.384,86.62l-2.173-7.399c-0.621-2.069-1.242-4.657-1.76-6.726h-0.104c-0.518,2.069-1.034,4.708-1.604,6.726l-2.07,7.399
				H402.384z"/>
			<path fill="#271F3E" d="M426.914,69.131c0,2.173-1.604,3.932-4.242,3.932c-2.484,0-4.088-1.759-4.088-3.932
				c0-2.225,1.655-3.933,4.191-3.933C425.311,65.199,426.862,66.906,426.914,69.131z M418.791,101.47V76.168h7.864v25.302H418.791z"
				/>
		</g>
		<g>
			<rect x="437.252" y="38.304" fill="#FFFFFF" width="14" height="14"/>
			<path fill="#CDD0E0" d="M452.752,53.804h-17v-17h17V53.804z M438.752,50.804h11v-11h-11V50.804z"/>
		</g>
		<g>
			<path fill="#CDD0E0" d="M315.691,108.047c2.19-0.372,5.265-0.652,9.598-0.652c4.378,0,7.5,0.838,9.596,2.516
				c2.05,1.583,3.354,4.193,3.354,7.267c0,3.075-0.978,5.73-2.889,7.454c-2.422,2.236-6.009,3.308-10.202,3.308
				c-0.932,0-1.77-0.047-2.422-0.187v11.274h-7.035V108.047z M322.726,122.303c0.606,0.14,1.304,0.186,2.376,0.186
				c3.774,0,6.103-1.91,6.103-5.078c0-2.888-2.002-4.612-5.59-4.612c-1.398,0-2.376,0.093-2.889,0.233V122.303z"/>
			<path fill="#CDD0E0" d="M341.497,132.877c1.305,0.792,4.007,1.677,6.103,1.677c2.143,0,3.028-0.699,3.028-1.863
				c0-1.212-0.698-1.771-3.308-2.655c-4.751-1.584-6.568-4.146-6.522-6.849c0-4.286,3.634-7.5,9.271-7.5
				c2.656,0,4.985,0.652,6.383,1.351l-1.212,4.892c-1.024-0.559-3.028-1.304-4.938-1.304c-1.724,0-2.702,0.699-2.702,1.817
				c0,1.118,0.885,1.677,3.68,2.655c4.333,1.491,6.103,3.727,6.149,7.035c0,4.286-3.308,7.407-9.83,7.407
				c-2.981,0-5.637-0.698-7.361-1.63L341.497,132.877z"/>
		</g>
	</g>
	<g>
		<path fill="#FFFFFF" d="M28.985,195.269c0,13.571,9.401,24.573,20.999,24.573h58.083c11.597,0,20.999-11.002,20.999-24.573l0,0
			c0-13.572-9.402-24.573-20.999-24.573H49.984C38.386,170.695,28.985,181.696,28.985,195.269L28.985,195.269z"/>
		<g>
			<path fill="#CDD0E0" d="M27.485,195.417c0-14.377,10.093-26.073,22.499-26.073h58.083c12.406,0,22.499,11.696,22.499,26.073
				s-10.093,26.074-22.499,26.074H49.984C37.578,221.491,27.485,209.794,27.485,195.417z M49.984,172.344
				c-10.752,0-19.499,10.351-19.499,23.073c0,12.724,8.747,23.074,19.499,23.074h58.083c10.752,0,19.499-10.351,19.499-23.074
				c0-12.723-8.747-23.073-19.499-23.073H49.984z"/>
		</g>
		<g>
			<path fill="#F2F4F9" d="M80.099,117.969l2.389,5.699c0.861,1.637,1.887,3.257,3.069,4.861c3.687-2.788,7.696-5.209,12.028-7.069
				c5.207-2.238,10.92-3.654,16.795-3.718c1.094-0.017,2.084,0.526,2.727,1.366c0.648,0.852,0.95,1.985,0.832,3.194
				c-0.117,1.209-0.604,2.28-1.227,3.034c-0.629,0.767-1.395,1.229-2.235,1.242l-0.409,0.007c-4.524,0.107-9.086,1.264-13.39,3.165
				c-3.206,1.412-6.271,3.23-9.154,5.346c5.917,5.388,14.212,10.436,25.575,14.915c3.297-3.57,7.18-6.708,11.619-9.021
				c0.97-0.509,2.097-0.475,3.05-0.017c0.964,0.467,1.746,1.339,2.188,2.473c0.443,1.132,0.492,2.306,0.279,3.26
				c-0.215,0.967-0.689,1.729-1.432,2.119l-0.361,0.192c-2.168,1.167-4.202,2.623-6.088,4.288c10.488,3.378,23.096,6.35,38.236,8.79
				v-0.001c8.877-12.503,15.6-23.576,20.549-33.422c-2.512,0.178-4.975,0.605-7.327,1.332l-0.392,0.124
				c-0.799,0.256-1.674,0.06-2.514-0.466c-0.831-0.517-1.633-1.376-2.129-2.485c-0.496-1.111-0.57-2.278-0.229-3.294
				c0.343-1.002,1.109-1.829,2.153-2.163c4.761-1.542,9.721-2.108,14.577-1.957c1.399-3.295,2.574-6.432,3.551-9.428
				c-3.387-0.761-5.804-2.657-5.509-4.421c0.317-1.891,3.636-2.914,7.412-2.281c0.003,0.001,0.007,0.002,0.008,0.001
				c1.1-4.546,1.693-8.725,1.842-12.563c-3.529,0.572-6.976,1.482-10.231,2.776c-4.373,1.736-8.396,4.178-11.646,7.327l-0.293,0.287
				c-0.597,0.59-1.465,0.811-2.453,0.723c-0.975-0.085-2.078-0.489-3.023-1.253s-1.541-1.773-1.693-2.834
				c-0.146-1.047,0.16-2.134,0.939-2.902c4.165-4.144,9.18-7.223,14.426-9.366c4.365-1.783,8.902-2.944,13.476-3.617
				c-0.313-1.968-0.75-3.836-1.313-5.598l-2.388-5.699c-3.339-6.301-7.812-10.714-12.698-13.563
				c-2.161,1.413-4.221,2.953-6.144,4.623c-3.907,3.396-7.233,7.364-9.466,11.77l-0.195,0.401c-0.406,0.82-1.173,1.378-2.156,1.67
				c-0.963,0.29-2.149,0.313-3.296-0.089c-1.147-0.404-2.035-1.188-2.513-2.193c-0.463-0.99-0.504-2.196,0.022-3.259
				c2.786-5.721,6.843-10.561,11.386-14.601c0.779-0.688,1.578-1.349,2.387-1.996c-4.898-0.879-9.747-0.519-13.916,0.819
				c-1.873,0.601-3.596,1.234-5.182,1.898c-12.711,5.327-16.764,12.753-20.652,23.056l0,0c-10.071-4.452-18.209-6.771-30.919-1.445
				c-1.587,0.665-3.245,1.45-4.988,2.361c-3.877,2.035-7.534,5.239-10.341,9.349c1.027-0.123,2.059-0.231,3.096-0.301
				c6.066-0.408,12.361,0.096,18.395,2.12c1.125,0.371,1.957,1.245,2.34,2.27c0.381,1.046,0.314,2.229-0.201,3.33
				c-0.518,1.098-1.365,1.929-2.248,2.412c-0.896,0.495-1.832,0.65-2.702,0.365l-0.423-0.141c-4.706-1.499-9.869-1.911-15.029-1.508
				c-2.537,0.201-5.08,0.59-7.603,1.138c-1.063,4.171-1.305,8.81-0.415,13.781c0.592-0.19,1.282-0.25,2.001-0.129
				c1.848,0.309,3.162,1.659,2.936,3.015C83.631,117.429,81.949,118.277,80.099,117.969z M113.761,100.834
				c0.317-1.892,3.636-2.914,7.414-2.281c3.777,0.631,6.582,2.678,6.268,4.57c-0.318,1.892-3.637,2.913-7.414,2.282
				C116.25,104.772,113.446,102.728,113.761,100.834z"/>
		</g>
		<g>
			<path fill="#CDD0E0" d="M165.062,163.278c-14.613-2.355-27.553-5.33-38.457-8.842l-2.509-0.808l1.976-1.744
				c2.033-1.796,4.178-3.306,6.38-4.491l0.364-0.193c0.391-0.206,0.578-0.722,0.667-1.12c0.167-0.745,0.089-1.613-0.214-2.387
				c-0.3-0.77-0.813-1.362-1.441-1.667c-0.556-0.268-1.187-0.276-1.707-0.003c-4.047,2.108-7.818,5.038-11.209,8.707l-0.696,0.754
				l-0.954-0.376c-10.932-4.308-19.691-9.422-26.037-15.2l-1.354-1.234l1.478-1.085c3.068-2.249,6.242-4.103,9.436-5.509
				c4.701-2.075,9.396-3.183,13.967-3.292l0.416-0.008c0.443-0.007,0.842-0.381,1.102-0.695c0.486-0.59,0.811-1.4,0.891-2.226
				c0.08-0.822-0.109-1.582-0.53-2.136c-0.38-0.495-0.921-0.779-1.52-0.779h-0.001c-5.346,0.059-10.803,1.269-16.219,3.595
				c-4.008,1.722-7.949,4.039-11.715,6.889l-1.211,0.916l-0.902-1.222c-1.225-1.66-2.297-3.361-3.189-5.055l-3.494-8.326
				l2.682,0.449c1.045,0.176,1.963-0.256,2.031-0.664c0.064-0.389-0.582-1.102-1.705-1.289c-0.461-0.079-0.902-0.048-1.291,0.077
				l-1.635,0.529l-0.303-1.692c-0.886-4.953-0.738-9.804,0.438-14.417l0.229-0.897l0.905-0.197c2.635-0.573,5.26-0.966,7.804-1.166
				c5.643-0.443,10.958,0.092,15.619,1.578l0.419,0.14c0.44,0.145,0.943,0.059,1.515-0.258c0.68-0.371,1.267-1.003,1.609-1.733
				c0.343-0.729,0.396-1.502,0.153-2.167c-0.242-0.647-0.766-1.159-1.412-1.372c-5.33-1.788-11.359-2.475-17.813-2.047
				c-0.877,0.061-1.811,0.151-3.025,0.294l-3.273,0.386l1.86-2.722c2.869-4.198,6.632-7.597,10.884-9.829
				c1.764-0.924,3.482-1.736,5.104-2.416c5.126-2.148,9.807-3.192,14.31-3.192c5.576,0,10.641,1.583,16.35,4.021
				c3.541-9.077,7.931-16.999,20.912-22.439c1.63-0.683,3.414-1.337,5.304-1.945c4.534-1.452,9.667-1.758,14.64-0.865l3.25,0.583
				l-2.578,2.064c-0.947,0.759-1.665,1.359-2.328,1.947c-4.854,4.315-8.566,9.071-11.037,14.142
				c-0.298,0.603-0.301,1.336-0.014,1.952c0.31,0.649,0.898,1.154,1.656,1.421c0.76,0.267,1.628,0.29,2.372,0.067
				c0.617-0.184,1.034-0.486,1.236-0.895l0.205-0.417c2.214-4.372,5.517-8.485,9.819-12.226c1.928-1.672,4.049-3.268,6.305-4.743
				l0.775-0.508l0.801,0.467c5.539,3.226,10.003,7.988,13.27,14.156l2.445,5.82l0.045,0.123c0.582,1.818,1.041,3.776,1.367,5.818
				l0.238,1.5l-1.502,0.221c-4.666,0.686-9.082,1.87-13.125,3.521c-5.457,2.229-10.146,5.271-13.941,9.048
				c-0.41,0.403-0.596,0.995-0.507,1.619c0.099,0.692,0.508,1.359,1.153,1.881c0.643,0.521,1.448,0.858,2.211,0.926
				c0.562,0.047,1.017-0.051,1.268-0.297l0.301-0.297c3.277-3.177,7.361-5.748,12.137-7.643c3.246-1.293,6.795-2.256,10.544-2.864
				l1.81-0.294l-0.07,1.832c-0.154,4.011-0.788,8.337-1.883,12.858l-0.277,1.146h-1.395l-0.119-0.034
				c-0.633-0.103-1.262-0.153-1.871-0.153c-2.465,0-3.667,0.805-3.736,1.215c-0.094,0.566,1.359,2.036,4.359,2.711l1.607,0.362
				l-0.51,1.566c-1.011,3.098-2.221,6.31-3.597,9.549l-0.401,0.944l-1.025-0.032c-4.922-0.144-9.728,0.479-14.076,1.888
				c-0.551,0.176-0.983,0.62-1.187,1.214c-0.224,0.663-0.161,1.445,0.176,2.2c0.339,0.757,0.905,1.423,1.554,1.827
				c0.486,0.304,0.894,0.427,1.273,0.305l0.395-0.123c2.379-0.736,4.957-1.206,7.664-1.397l2.631-0.187l-1.185,2.356
				c-5.147,10.243-12.101,21.555-20.665,33.618l-0.541,0.762L165.062,163.278z M178.97,131.14l-0.381,0.119
				c-1.188,0.38-2.514,0.164-3.766-0.62c-1.158-0.722-2.118-1.839-2.704-3.146c-0.647-1.448-0.746-3.006-0.278-4.392
				c0.516-1.506,1.65-2.639,3.109-3.104c4.365-1.414,9.109-2.073,14.053-2.053c0.967-2.329,1.844-4.638,2.617-6.892
				c-3.418-1.179-5.451-3.39-5.068-5.684c0.379-2.26,3.008-3.72,6.695-3.72c0.346,0,0.696,0.013,1.049,0.039
				c0.707-3.165,1.174-6.214,1.391-9.101c-2.853,0.568-5.561,1.359-8.07,2.358c-4.409,1.749-8.162,4.107-11.147,7l-0.293,0.289
				c-0.889,0.875-2.166,1.283-3.638,1.147c-1.361-0.12-2.723-0.683-3.832-1.582c-1.235-0.997-2.029-2.343-2.236-3.79
				c-0.221-1.556,0.293-3.118,1.365-4.175c4.074-4.052,9.092-7.313,14.918-9.692c3.822-1.561,7.951-2.726,12.297-3.47
				c-0.265-1.337-0.592-2.623-0.979-3.838l-2.335-5.574c-2.839-5.337-6.638-9.514-11.302-12.43c-1.853,1.254-3.598,2.59-5.199,3.978
				c-4.007,3.484-7.072,7.292-9.102,11.301l-0.199,0.405c-0.582,1.174-1.645,2.018-3.066,2.439c-1.34,0.404-2.863,0.367-4.227-0.11
				c-1.519-0.534-2.715-1.586-3.375-2.972c-0.685-1.466-0.671-3.128,0.033-4.553c2.601-5.339,6.475-10.338,11.516-14.863
				c-3.426-0.217-6.786,0.189-9.852,1.17c-1.807,0.582-3.51,1.206-5.061,1.856c-12.598,5.279-16.3,12.852-19.83,22.202l-0.56,1.483
				l-1.45-0.641c-6.134-2.713-11.047-4.394-16.582-4.394c-4.097,0-8.398,0.968-13.15,2.96c-1.545,0.646-3.184,1.422-4.871,2.306
				c-2.879,1.511-5.514,3.626-7.747,6.202c6.757-0.422,13.057,0.328,18.668,2.212c1.495,0.492,2.721,1.678,3.28,3.181
				c0.521,1.431,0.433,3.021-0.252,4.481c-0.618,1.313-1.643,2.41-2.88,3.086c-1.296,0.716-2.656,0.886-3.901,0.478l-0.406-0.136
				c-4.268-1.359-9.205-1.851-14.455-1.44c-2.113,0.167-4.289,0.475-6.48,0.915c-0.771,3.479-0.906,7.107-0.402,10.816
				c0.001,0,0.002,0,0.004,0c0.33,0,0.664,0.027,0.993,0.083c2.705,0.453,4.536,2.536,4.167,4.743
				c-0.247,1.477-1.424,2.605-3.033,3.029l1.541,3.677c0.598,1.13,1.285,2.265,2.051,3.39c3.58-2.579,7.308-4.707,11.098-6.334
				c5.781-2.484,11.625-3.775,17.436-3.839c1.507,0,2.918,0.713,3.872,1.959c0.883,1.161,1.284,2.67,1.132,4.246
				c-0.139,1.425-0.693,2.79-1.561,3.842c-0.946,1.151-2.112,1.77-3.367,1.789l-0.402,0.008c-4.168,0.1-8.48,1.121-12.82,3.037
				c-2.469,1.087-4.932,2.463-7.34,4.101c5.756,4.869,13.399,9.241,22.766,13.017c3.441-3.574,7.243-6.458,11.311-8.576
				c1.328-0.698,2.998-0.716,4.402-0.041c1.316,0.639,2.357,1.804,2.931,3.276c0.522,1.333,0.646,2.801,0.348,4.133
				c-0.324,1.455-1.083,2.534-2.193,3.118l-0.353,0.187c-1.25,0.674-2.486,1.467-3.693,2.371c9.954,3.035,21.523,5.641,34.447,7.757
				c7.551-10.693,13.805-20.767,18.625-29.996C181.753,130.397,180.324,130.722,178.97,131.14z M120.492,106.586
				c-4.742-0.793-7.967-3.501-7.499-6.299c0.379-2.26,3.007-3.719,6.696-3.719c0.799,0,1.621,0.069,2.444,0.207
				c4.741,0.793,7.966,3.5,7.499,6.298c-0.379,2.26-3.007,3.721-6.694,3.721C122.138,106.794,121.316,106.724,120.492,106.586z
				 M115.952,100.782c-0.095,0.565,1.554,2.263,5.036,2.845c0.66,0.11,1.316,0.167,1.95,0.167c2.465,0,3.666-0.806,3.735-1.216
				c0.094-0.565-1.554-2.262-5.035-2.844c-0.66-0.11-1.315-0.166-1.949-0.166C117.222,99.568,116.021,100.373,115.952,100.782z"/>
		</g>
		<g>
			<path fill="#CDD0E0" d="M78.171,170.263h3c0-50.16,22.597-90.968,50.372-90.968v-3c-14.433,0-27.927,9.885-37.996,27.834
				C83.632,121.804,78.171,145.291,78.171,170.263z"/>
		</g>
	</g>
	<g>
		<g>
			<rect x="595.357" y="85.12" fill="#F2F4F9" width="22.576" height="134.38"/>
			<path fill="#CDD0E0" d="M619.434,221h-25.576V83.62h25.576V221z M596.857,218h19.576V86.62h-19.576V218z"/>
		</g>
		<g>
			<rect x="617.934" y="109.846" fill="#E1E4EE" width="15.051" height="109.654"/>
			<path fill="#CDD0E0" d="M634.484,221h-18.051V108.346h18.051V221z M619.434,218h12.051V111.346h-12.051V218z"/>
		</g>
		<g>
			<rect x="651.26" y="109.846" fill="#FFFFFF" width="15.051" height="109.654"/>
			<path fill="#CDD0E0" d="M667.811,221H649.76V108.346h18.051V221z M652.76,218h12.051V111.346H652.76V218z"/>
		</g>
		<g>
			<rect x="633.388" y="96.945" fill="#E9EBF3" width="17.469" height="122.555"/>
			<path fill="#CDD0E0" d="M652.356,221h-20.469V95.445h20.469V221z M634.888,218h14.469V98.445h-14.469V218z"/>
		</g>
		<g>
			
				<rect x="678.539" y="85.121" transform="matrix(0.9654 -0.2607 0.2607 0.9654 -15.9423 184.418)" fill="#F2F4F9" width="17.469" height="134.379"/>
			<path fill="#CDD0E0" d="M695.302,221.293L659.484,88.664l19.762-5.337l35.816,132.63L695.302,221.293z M663.162,90.778
				l34.253,126.836l13.97-3.772L677.133,87.005L663.162,90.778z"/>
		</g>
	</g>
	<g>
		<path fill="#271F3E" d="M601.126,214.018c0,2.577-2.091,4.666-4.667,4.666H494.74c-2.577,0-4.665-2.089-4.665-4.666v-79.322
			c0-2.577,2.088-4.666,4.665-4.666h101.719c2.576,0,4.667,2.089,4.667,4.666V214.018z"/>
		<path fill="#FFFFFF" d="M601.126,134.695c0-2.577-2.091-4.666-4.667-4.666H494.74c-2.577,0-4.665,2.089-4.665,4.666v20.531
			h111.051V134.695z"/>
		<path fill="#FFFFFF" d="M490.075,214.018c0,2.577,2.088,4.666,4.665,4.666h101.719c2.576,0,4.667-2.089,4.667-4.666v-4.666
			H490.075V214.018z"/>
		<g>
			<path fill="#CDD0E0" d="M596.225,219.67H494.506c-3.246,0-5.888-2.641-5.888-5.887v-79.322c0-3.247,2.642-5.888,5.888-5.888
				h101.719c3.247,0,5.889,2.641,5.889,5.888v79.322C602.113,217.029,599.472,219.67,596.225,219.67z M494.506,131.017
				c-1.898,0-3.443,1.545-3.443,3.444v79.322c0,1.898,1.545,3.443,3.443,3.443h101.719c1.899,0,3.444-1.545,3.444-3.443v-79.322
				c0-1.899-1.545-3.444-3.444-3.444H494.506z"/>
		</g>
		<circle fill="#FFFFFF" cx="534.167" cy="186.254" r="34.995"/>
		<linearGradient id="SVGID_2_" gradientUnits="userSpaceOnUse" x1="506.1709" y1="186.2539" x2="562.1631" y2="186.2539">
			<stop  offset="0" style="stop-color:#5E4B8B"/>
			<stop  offset="1" style="stop-color:#271F3E"/>
		</linearGradient>
		<circle fill="url(#SVGID_2_)" cx="534.167" cy="186.254" r="27.996"/>
		<linearGradient id="SVGID_3_" gradientUnits="userSpaceOnUse" x1="508.9707" y1="186.2539" x2="559.3643" y2="186.2539">
			<stop  offset="0" style="stop-color:#271F3E"/>
			<stop  offset="1" style="stop-color:#5E4B8B"/>
		</linearGradient>
		<circle fill="url(#SVGID_3_)" cx="534.167" cy="186.254" r="25.197"/>
		<linearGradient id="SVGID_4_" gradientUnits="userSpaceOnUse" x1="516.5303" y1="186.2539" x2="551.8047" y2="186.2539">
			<stop  offset="0" style="stop-color:#5E4B8B"/>
			<stop  offset="1" style="stop-color:#271F3E"/>
		</linearGradient>
		<circle fill="url(#SVGID_4_)" cx="534.167" cy="186.254" r="17.637"/>
		<linearGradient id="SVGID_5_" gradientUnits="userSpaceOnUse" x1="525.4375" y1="194.9844" x2="542.8975" y2="177.5244">
			<stop  offset="0" style="stop-color:#7379BA"/>
			<stop  offset="1" style="stop-color:#69CEF4"/>
		</linearGradient>
		<circle fill="url(#SVGID_5_)" cx="534.167" cy="186.254" r="12.346"/>
		<circle fill="#67CBF4" cx="534.167" cy="186.254" r="6.173"/>
		<g>
			<path fill="#CDD0E0" d="M534.167,222.471c-19.971,0-36.217-16.247-36.217-36.217c0-19.971,16.246-36.217,36.217-36.217
				c19.97,0,36.217,16.247,36.217,36.217C570.384,206.224,554.137,222.471,534.167,222.471z M534.167,152.48
				c-18.623,0-33.773,15.15-33.773,33.773s15.15,33.773,33.773,33.773c18.622,0,33.773-15.15,33.773-33.773
				S552.789,152.48,534.167,152.48z"/>
		</g>
		<rect x="574.761" y="137.261" fill="#271F3E" width="12.133" height="9.332"/>
		<path fill="#CDD0E0" d="M588.115,147.815H573.54v-11.776h14.575V147.815z M575.983,145.371h9.688v-6.888h-9.688V145.371z"/>
		<rect x="499.172" y="125.129" fill="#CDD0E0" width="23.33" height="4.666"/>
		<circle opacity="0.2" fill="#67CBF4" cx="538.478" cy="190.48" r="9.762"/>
		<circle opacity="0.2" fill="#FFFFFF" cx="538.478" cy="190.48" r="4.881"/>
	</g>
	<g>
		<g>
			<path fill="#271F3E" d="M277.444,216.299c-0.286-1.258-0.975-2.389-1.937-3.184l-31.204-25.813
				c-0.379-0.313-1.384-1.145-98.045-6.186c-2.495-0.158-4.499,1.58-4.594,3.885c-0.095,2.318,1.774,4.246,4.254,4.387
				c30.997,1.884,89.317,5.462,94.041,5.88l30.93,25.584c0.847,0.701,1.853,1.088,2.835,1.088c1.33,0,2.499-0.682,3.207-1.867
				C277.564,219.012,277.752,217.637,277.444,216.299z"/>
			<path fill="#CDD0E0" d="M273.725,223.439c-1.33,0-2.676-0.508-3.792-1.432l-30.565-25.285
				c-7.224-0.563-63.865-4.035-93.539-5.838c-3.301-0.188-5.79-2.799-5.662-5.945c0.131-3.17,2.837-5.531,6.188-5.32
				c97.135,5.066,98.075,5.842,98.904,6.525l31.206,25.816c1.216,1.004,2.084,2.428,2.443,4.006
				c0.393,1.707,0.142,3.484-0.688,4.875C277.233,222.492,275.595,223.439,273.725,223.439z M145.944,182.606
				c-1.527,0-2.723,1.056-2.78,2.456c-0.062,1.492,1.187,2.734,2.84,2.828c30.462,1.85,89.319,5.461,94.088,5.883l0.465,0.041
				l31.289,25.881c0.579,0.48,1.246,0.744,1.879,0.744c0.8,0,1.481-0.402,1.919-1.137c0.437-0.73,0.561-1.703,0.339-2.668
				c-0.214-0.939-0.722-1.777-1.43-2.363l-31.049-25.685c-2.267-0.534-21.32-2.009-97.323-5.973
				C146.09,182.608,146.017,182.606,145.944,182.606z"/>
		</g>
		<g>
			<path fill="#271F3E" d="M264.947,181.108c-0.092,0-0.183,0.002-0.271,0.008c-96.666,5.041-97.67,5.873-98.048,6.186
				l-31.204,25.813c-0.962,0.795-1.65,1.926-1.938,3.184c-0.306,1.338-0.119,2.713,0.514,3.773c0.709,1.186,1.877,1.867,3.206,1.867
				c0.983,0,1.99-0.387,2.835-1.086l30.931-25.586c4.724-0.418,63.045-3.996,94.037-5.88c2.482-0.141,4.354-2.068,4.257-4.387
				C269.175,182.782,267.318,181.108,264.947,181.108z"/>
			<path fill="#CDD0E0" d="M137.206,223.439c-1.868,0-3.506-0.945-4.493-2.598c-0.829-1.389-1.08-3.166-0.688-4.877
				c0.361-1.578,1.229-3,2.445-4.006l31.203-25.813c0.828-0.686,1.767-1.461,98.926-6.528c0.099-0.007,0.223-0.01,0.349-0.01
				c3.191,0,5.692,2.292,5.817,5.331c0.131,3.146-2.36,5.758-5.671,5.945c-29.672,1.803-86.315,5.277-93.529,5.838l-30.567,25.287
				C139.883,222.932,138.536,223.439,137.206,223.439z M167.429,188.586l-31.048,25.686c-0.709,0.586-1.218,1.426-1.433,2.363
				c-0.221,0.965-0.097,1.938,0.34,2.67c0.438,0.732,1.119,1.135,1.918,1.135c0.634,0,1.301-0.264,1.879-0.74l31.29-25.885
				l0.465-0.041c4.752-0.422,63.616-4.032,94.078-5.883c1.662-0.094,2.911-1.336,2.849-2.827c-0.058-1.423-1.244-2.455-2.819-2.455
				c-0.058,0-0.115,0.001-0.171,0.005C188.756,186.578,169.698,188.053,167.429,188.586z"/>
		</g>
		<path opacity="0.5" fill="#FDFAF8" d="M199.498,205.748c0,5.523-4.478,10-10,10H154c-5.522,0-10-4.477-10-10V185.25
			c0-5.522,4.478-10,10-10h35.498c5.522,0,10,4.478,10,10V205.748z"/>
		<path opacity="0.5" fill="#FDFAF8" d="M265.498,205.748c0,5.523-4.478,10-10,10H220c-5.522,0-10-4.477-10-10V185.25
			c0-5.522,4.478-10,10-10h35.498c5.522,0,10,4.478,10,10V205.748z"/>
		<g>
			<path fill="#271F3E" d="M220,218.748c-7.168,0-13-5.83-13-13V185.25c0-0.412,0.021-0.829,0.064-1.25h-4.631
				c0.043,0.421,0.064,0.838,0.064,1.25v20.498c0,7.17-5.832,13-13,13H154c-7.168,0-13-5.83-13-13V185.25
				c0-0.595,0.045-1.199,0.134-1.809c-2.318-1.015-3.883-3.318-3.883-5.941v-0.499c0-3.584,2.916-6.5,6.5-6.5h121.993
				c3.584,0,6.5,2.916,6.5,6.5v0.499c0,2.622-1.563,4.925-3.88,5.94c0.089,0.609,0.134,1.215,0.134,1.81v20.498
				c0,7.17-5.832,13-13,13H220z M213.116,184c-0.077,0.415-0.116,0.833-0.116,1.25v20.498c0,3.861,3.141,7,7,7h35.498
				c3.859,0,7-3.139,7-7V185.25c0-0.417-0.039-0.835-0.116-1.25H213.116z M147.116,184c-0.077,0.415-0.116,0.833-0.116,1.25v20.498
				c0,3.861,3.141,7,7,7h35.498c3.859,0,7-3.139,7-7V185.25c0-0.417-0.039-0.835-0.116-1.25H147.116z"/>
			<path fill="#CDD0E0" d="M265.744,172.001c2.762,0,5,2.239,5,5v0.499c0,2.459-1.777,4.492-4.115,4.91
				c0.232,0.91,0.369,1.859,0.369,2.84v20.498c0,6.342-5.159,11.5-11.5,11.5H220c-6.341,0-11.5-5.158-11.5-11.5V185.25
				c0-0.949,0.129-1.867,0.347-2.75h-8.195c0.218,0.883,0.347,1.801,0.347,2.75v20.498c0,6.342-5.159,11.5-11.5,11.5H154
				c-6.341,0-11.5-5.158-11.5-11.5V185.25c0-0.98,0.137-1.929,0.369-2.839c-2.339-0.418-4.118-2.452-4.118-4.911v-0.499
				c0-2.761,2.238-5,5-5H265.744 M220,214.248h35.498c4.687,0,8.5-3.813,8.5-8.5V185.25c0-0.963-0.169-1.887-0.466-2.75h-51.566
				c-0.297,0.863-0.466,1.787-0.466,2.75v20.498C211.5,210.436,215.313,214.248,220,214.248 M154,214.248h35.498
				c4.687,0,8.5-3.813,8.5-8.5V185.25c0-0.963-0.169-1.887-0.466-2.75h-51.566c-0.297,0.863-0.466,1.787-0.466,2.75v20.498
				C145.5,210.436,149.313,214.248,154,214.248 M265.744,169.001H143.751c-4.411,0-8,3.589-8,8v0.499
				c0,2.838,1.487,5.371,3.783,6.793c-0.022,0.32-0.034,0.641-0.034,0.957v20.498c0,7.996,6.505,14.5,14.5,14.5h35.498
				c7.995,0,14.5-6.504,14.5-14.5V185.5h1.502v20.248c0,7.996,6.505,14.5,14.5,14.5h35.498c7.995,0,14.5-6.504,14.5-14.5V185.25
				c0-0.317-0.012-0.638-0.034-0.959c2.295-1.422,3.78-3.955,3.78-6.791v-0.499C273.744,172.59,270.155,169.001,265.744,169.001
				L265.744,169.001z M214.5,185.5h46.498v20.248c0,3.033-2.467,5.5-5.5,5.5H220c-3.033,0-5.5-2.467-5.5-5.5V185.5L214.5,185.5z
				 M148.5,185.5h46.498v20.248c0,3.033-2.467,5.5-5.5,5.5H154c-3.033,0-5.5-2.467-5.5-5.5V185.5L148.5,185.5z"/>
		</g>
	</g>
</g>
</svg>
