<?xml version="1.0" encoding="utf-8"?>
<!-- Generator: Adobe Illustrator 15.0.0, SVG Export Plug-In . SVG Version: 6.00 Build 0)  -->
<!DOCTYPE svg PUBLIC "-//W3C//DTD SVG 1.1//EN" "http://www.w3.org/Graphics/SVG/1.1/DTD/svg11.dtd">
<svg version="1.1" id="Layer_1" xmlns="http://www.w3.org/2000/svg" xmlns:xlink="http://www.w3.org/1999/xlink" x="0px" y="0px"
	 width="743px" height="395.5px" viewBox="0 0 743 395.5" enable-background="new 0 0 743 395.5" xml:space="preserve">
<g id="Workspace4">
	<g>
		<g>
			<g>
				<g>
					<rect x="115.023" y="50.596" fill="#DADDEA" width="126.942" height="119.994"/>
					<path fill="#CDD0E0" d="M243.465,172.09H113.523V49.096h129.942V172.09z M116.523,169.09h123.942V52.096H116.523V169.09z"/>
				</g>
				<g>
					<path fill="#DADDEA" d="M242.989,172.09h-128.99V49.096h128.99V172.09z M116.047,169.09h124.895V52.096H116.047V169.09z"/>
					<path fill="#CDD0E0" d="M244.489,173.59h-131.99V47.596h131.99V173.59z M117.547,167.59h121.895V53.596H117.547V167.59z
						 M115.499,50.596h125.99H115.499z"/>
				</g>
			</g>
			<g>
				<path fill="#E9EBF3" d="M158.881,121.614l-3.326,11.988h-10.879l14.205-46.705h13.859l14.552,46.705h-11.433l-3.604-11.988
					H158.881z M170.73,113.715l-2.911-9.908c-0.831-2.772-1.663-6.237-2.356-9.01h-0.139c-0.693,2.772-1.386,6.308-2.148,9.01
					l-2.771,9.908H170.73z"/>
				<path fill="#E9EBF3" d="M203.577,90.293c0,2.911-2.148,5.267-5.682,5.267c-3.326,0-5.474-2.355-5.474-5.267
					c0-2.979,2.217-5.266,5.613-5.266S203.508,87.314,203.577,90.293z M192.698,133.603V99.717h10.533v33.886H192.698z"/>
			</g>
		</g>
		<circle fill="#CDD0E0" cx="178.494" cy="5" r="5"/>
		<g>
			
				<rect x="161.539" y="0.022" transform="matrix(0.8118 0.5839 -0.5839 0.8118 46.1596 -90.2186)" fill="#CDD0E0" width="3" height="52.956"/>
		</g>
		<g>
			
				<rect x="166.561" y="25" transform="matrix(0.5837 0.812 -0.812 0.5837 101.8854 -145.7133)" fill="#CDD0E0" width="52.956" height="3"/>
		</g>
	</g>
	<g>
		<g>
			<g>
				
					<rect x="609.613" y="50.801" transform="matrix(0.9967 -0.0817 0.0817 0.9967 -3.4645 51.4602)" fill="#271F3E" width="34.496" height="34.497"/>
				<path fill="#CDD0E0" d="M647.081,85.204l-37.373,3.064l-3.064-37.373l37.373-3.064L647.081,85.204z M612.452,85.033
					l31.393-2.574l-2.574-31.393l-31.393,2.574L612.452,85.033z"/>
			</g>
			<g>
				
					<rect x="610.513" y="72.764" transform="matrix(0.9967 -0.0817 0.0817 0.9967 -4.3575 51.5704)" fill="#FFFFFF" width="34.496" height="12.498"/>
				<path fill="#CDD0E0" d="M647.081,85.204l-37.373,3.064l-1.268-15.446l37.373-3.064L647.081,85.204z M612.452,85.033
					l31.393-2.574l-0.775-9.467l-31.393,2.575L612.452,85.033z"/>
			</g>
		</g>
		<g>
			<g>
				<rect x="668.478" y="50.326" fill="#5E4B8B" width="34.498" height="34.498"/>
				<path fill="#CDD0E0" d="M704.476,86.324h-37.498V48.826h37.498V86.324z M669.978,83.324h31.498V51.826h-31.498V83.324z"/>
			</g>
			<g>
				<rect x="668.478" y="72.326" fill="#FFFFFF" width="34.498" height="12.498"/>
				<path fill="#CDD0E0" d="M704.476,86.324h-37.498V70.826h37.498V86.324z M669.978,83.324h31.498v-9.498h-31.498V83.324z"/>
			</g>
		</g>
		<g>
			<g>
				
					<rect x="609.613" y="104.798" transform="matrix(0.9981 0.0617 -0.0617 0.9981 8.7311 -38.4698)" fill="#7379BA" width="34.497" height="34.498"/>
				<path fill="#CDD0E0" d="M644.417,141.918l-37.426-2.315l2.314-37.427l37.428,2.315L644.417,141.918z M610.171,136.793
					l31.438,1.945l1.945-31.438l-31.438-1.945L610.171,136.793z"/>
			</g>
			<g>
				
					<rect x="608.934" y="126.777" transform="matrix(0.9981 0.0617 -0.0617 0.9981 9.4077 -38.4069)" fill="#FFFFFF" width="34.497" height="12.498"/>
				<path fill="#CDD0E0" d="M644.417,141.918l-37.426-2.315l0.957-15.469l37.426,2.315L644.417,141.918z M610.171,136.793
					l31.438,1.945l0.586-9.479l-31.438-1.945L610.171,136.793z"/>
			</g>
		</g>
		<g>
			<g>
				
					<rect x="668.546" y="161.325" transform="matrix(0.9905 0.1375 -0.1375 0.9905 31.0658 -92.5959)" fill="#F89E71" width="34.498" height="34.498"/>
				<path fill="#CDD0E0" d="M701.789,199.723l-37.143-5.155l5.155-37.142l37.143,5.155L701.789,199.723z M668.03,192.009
					l31.199,4.33l4.33-31.199l-31.198-4.33L668.03,192.009z"/>
			</g>
			<g>
				
					<rect x="666.897" y="184.212" transform="matrix(0.9905 0.1375 -0.1375 0.9905 32.6833 -92.2538)" fill="#FFFFFF" width="34.499" height="12.498"/>
				<path fill="#CDD0E0" d="M701.651,200.713l-37.143-5.155l2.131-15.351l37.143,5.155L701.651,200.713z M667.894,192.999
					l31.198,4.33l1.307-9.407l-31.199-4.331L667.894,192.999z"/>
			</g>
		</g>
		<g>
			<g>
				<rect x="609.612" y="158.299" fill="#F16B90" width="34.498" height="34.498"/>
				<path fill="#CDD0E0" d="M645.61,194.297h-37.498v-37.498h37.498V194.297z M611.112,191.297h31.498v-31.498h-31.498V191.297z"/>
			</g>
			<g>
				<rect x="609.612" y="181.299" fill="#FFFFFF" width="34.498" height="12.498"/>
				<path fill="#CDD0E0" d="M645.61,195.297h-37.498v-15.498h37.498V195.297z M611.112,192.297h31.498v-9.498h-31.498V192.297z"/>
			</g>
		</g>
		<g>
			<g>
				
					<rect x="668.427" y="102.804" transform="matrix(0.9948 -0.1014 0.1014 0.9948 -8.6406 70.1646)" fill="#BC79B3" width="34.498" height="34.498"/>
				<path fill="#CDD0E0" d="M706.229,136.805l-37.305,3.803l-3.803-37.305l37.305-3.803L706.229,136.805z M671.605,137.318
					l31.335-3.194l-3.194-31.336l-31.335,3.194L671.605,137.318z"/>
			</g>
			<g>
				
					<rect x="669.643" y="125.743" transform="matrix(0.9948 -0.1014 0.1014 0.9948 -9.8452 70.3496)" fill="#FFFFFF" width="34.498" height="12.498"/>
				<path fill="#CDD0E0" d="M706.331,137.799l-37.305,3.803l-1.572-15.418l37.306-3.803L706.331,137.799z M671.707,138.313
					l31.335-3.194l-0.963-9.449l-31.336,3.194L671.707,138.313z"/>
			</g>
		</g>
	</g>
	<g>
		<g>
			<linearGradient id="SVGID_1_" gradientUnits="userSpaceOnUse" x1="591.1045" y1="302.8252" x2="725.4834" y2="302.8252">
				<stop  offset="0" style="stop-color:#F16B90"/>
				<stop  offset="1" style="stop-color:#F89E71"/>
			</linearGradient>
			<rect x="591.104" y="291.537" fill="url(#SVGID_1_)" width="134.379" height="22.576"/>
			<path fill="#CDD0E0" d="M726.983,315.613H589.604v-25.576h137.379V315.613z M592.604,312.613h131.379v-19.576H592.604V312.613z"
				/>
		</g>
		<g>
			<linearGradient id="SVGID_2_" gradientUnits="userSpaceOnUse" x1="603.4668" y1="284.0117" x2="713.1201" y2="284.0117">
				<stop  offset="0" style="stop-color:#BC79B3"/>
				<stop  offset="1" style="stop-color:#7379BA"/>
			</linearGradient>
			<rect x="603.467" y="276.486" fill="url(#SVGID_2_)" width="109.653" height="15.051"/>
			<path fill="#CDD0E0" d="M714.62,293.037H601.967v-18.051H714.62V293.037z M604.967,290.037H711.62v-12.051H604.967V290.037z"/>
		</g>
		<g>
			<rect x="603.467" y="243.16" fill="#271F3E" width="109.653" height="15.051"/>
			<path fill="#CDD0E0" d="M714.62,259.711H601.967V241.66H714.62V259.711z M604.967,256.711H711.62V244.66H604.967V256.711z"/>
		</g>
		<g>
			<linearGradient id="SVGID_3_" gradientUnits="userSpaceOnUse" x1="597.0156" y1="267.3486" x2="719.5703" y2="267.3486">
				<stop  offset="0" style="stop-color:#69CEF4"/>
				<stop  offset="1" style="stop-color:#7379BA"/>
			</linearGradient>
			<rect x="597.016" y="258.614" fill="url(#SVGID_3_)" width="122.555" height="17.469"/>
			<path fill="#CDD0E0" d="M721.07,277.583H595.516v-20.469H721.07V277.583z M598.516,274.583H718.07v-14.469H598.516V274.583z"/>
		</g>
	</g>
	<g>
		<g>
			<g>
				<polygon fill="#FFFFFF" points="117.03,394 99.03,394 96.03,328 120.03,328 				"/>
				<path fill="#CDD0E0" d="M118.464,395.5H97.597l-3.136-69h27.14L118.464,395.5z M100.464,392.5h15.133l2.864-63H97.6
					L100.464,392.5z"/>
			</g>
			<polygon fill="#CDD0E0" points="96.03,331 97.212,357 118.849,357 120.03,331 			"/>
		</g>
		<g>
			<g>
				<polygon fill="#FFFFFF" points="644.03,394 626.03,394 623.03,328 647.03,328 				"/>
				<path fill="#CDD0E0" d="M645.464,395.5h-20.867l-3.136-69H648.6L645.464,395.5z M627.464,392.5h15.133l2.864-63H624.6
					L627.464,392.5z"/>
			</g>
			<polygon fill="#CDD0E0" points="623.03,331 624.212,357 645.849,357 647.03,331 			"/>
		</g>
		<g>
			<rect x="1.5" y="315" fill="#FFFFFF" width="740" height="26"/>
			<path fill="#CDD0E0" d="M743,342.5H0v-29h743V342.5z M3,339.5h737v-23H3V339.5z"/>
		</g>
	</g>
	<g>
		<path fill="#271F3E" d="M532.5,284c0,11.046-8.955,20-20,20h-282c-11.046,0-20-8.954-20-20V116c0-11.046,8.954-20,20-20h282
			c11.045,0,20,8.954,20,20V284z"/>
		<path fill="#CDD0E0" d="M512.5,305.5h-282c-11.855,0-21.5-9.645-21.5-21.5V116c0-11.855,9.645-21.5,21.5-21.5h282
			c11.855,0,21.5,9.645,21.5,21.5v168C534,295.855,524.355,305.5,512.5,305.5z M230.5,97.5c-10.201,0-18.5,8.299-18.5,18.5v168
			c0,10.201,8.299,18.5,18.5,18.5h282c10.201,0,18.5-8.299,18.5-18.5V116c0-10.201-8.299-18.5-18.5-18.5H230.5z"/>
	</g>
	<linearGradient id="SVGID_4_" gradientUnits="userSpaceOnUse" x1="257.0845" y1="311.584" x2="485.9172" y2="82.7512">
		<stop  offset="0" style="stop-color:#69CEF4"/>
		<stop  offset="1" style="stop-color:#7379BA"/>
	</linearGradient>
	<rect x="224.5" y="115.334" fill="url(#SVGID_4_)" width="294" height="163.666"/>
	<linearGradient id="SVGID_5_" gradientUnits="userSpaceOnUse" x1="277.2925" y1="250.959" x2="465.7087" y2="62.5427">
		<stop  offset="0" style="stop-color:#BC79B3"/>
		<stop  offset="1" style="stop-color:#7379BA"/>
	</linearGradient>
	<rect x="224.5" y="115.334" fill="url(#SVGID_5_)" width="294" height="82.833"/>
	<linearGradient id="SVGID_6_" gradientUnits="userSpaceOnUse" x1="209.0845" y1="263.584" x2="341.9172" y2="130.7512">
		<stop  offset="0" style="stop-color:#F89E71"/>
		<stop  offset="1" style="stop-color:#F16B90"/>
	</linearGradient>
	<rect x="224.5" y="115.334" fill="url(#SVGID_6_)" width="102" height="163.666"/>
	<g>
		<g>
			<polygon fill="#FFFFFF" points="574.25,309 555.25,314 187.25,314 168.25,309 168.25,297 574.25,297 			"/>
			<path fill="#CDD0E0" d="M555.444,315.5l-368.576-0.05l-20.119-5.294V295.5h409v14.656L555.444,315.5z M187.445,312.5h367.611
				l17.694-4.656V298.5h-403v9.344L187.445,312.5z"/>
		</g>
		<polygon fill="#CDD0E0" points="169.25,308 187.25,314 555.25,314 574.75,308 		"/>
	</g>
	<path fill="#CDD0E0" d="M404.688,299.167c0,1.519-0.615,2.75-1.373,2.75h-63.63c-0.759,0-1.374-1.231-1.374-2.75l0,0
		c0-1.519,0.615-2.75,1.374-2.75h63.63C404.073,296.417,404.688,297.648,404.688,299.167L404.688,299.167z"/>
	<g>
		<path fill="#CDD0E0" d="M520,280.5H223V113.834h297V280.5z M226,277.5h291V116.834H226V277.5z"/>
	</g>
	<rect x="240.585" y="134" fill="#FFFFFF" width="70" height="6"/>
	<rect x="240.585" y="144" fill="#CDD0E0" width="35" height="6"/>
	<rect x="340.085" y="209" fill="#CDD0E0" width="164.5" height="6"/>
	<rect x="340.085" y="219" fill="#CDD0E0" width="131.5" height="6"/>
	<rect x="340.085" y="229" fill="#CDD0E0" width="87.5" height="6"/>
	<rect x="340.085" y="239" fill="#CDD0E0" width="131.5" height="6"/>
	<g>
		<path fill="#CDD0E0" d="M369.643,173.383c0.165,0.231-0.488-0.714-1.445-2.098c-1.258,0.348-2.578,0.549-3.945,0.549
			c-8.179,0-14.833-6.654-14.833-14.834c0-8.179,6.654-14.833,14.833-14.833c8.179,0,14.833,6.654,14.833,14.833
			c0,3.056-0.93,5.898-2.521,8.261c0.626,0.8,0.997,1.271,0.882,1.114c0.752,1.013,1.495,2.032,2.244,3.047
			c2.743-3.403,4.395-7.721,4.395-12.422c0-10.936-8.897-19.833-19.833-19.833c-10.936,0-19.833,8.897-19.833,19.833
			c0,10.937,8.897,19.834,19.833,19.834c2.446,0,4.78-0.467,6.946-1.28C370.681,174.829,370.159,174.108,369.643,173.383z"/>
	</g>
	<g>
		<path fill="#CDD0E0" d="M437.016,155.787c0.033,0.401,0.069,0.803,0.069,1.213c0,8.18-6.654,14.834-14.833,14.834
			S407.419,165.18,407.419,157c0-8.039,6.432-14.589,14.418-14.813c-0.021-1.529-0.036-3.201-0.049-4.997
			c-10.721,0.25-19.369,9.03-19.369,19.81c0,10.937,8.896,19.834,19.833,19.834c10.936,0,19.833-8.897,19.833-19.834
			c0-0.378-0.018-0.751-0.039-1.123C440.372,155.773,438.694,155.75,437.016,155.787z"/>
	</g>
	<g>
		<path fill="#FFFFFF" d="M480.252,137.167c-10.937,0-19.833,8.897-19.833,19.833c0,10.137,7.647,18.508,17.474,19.68
			c0.017-1.816,0.035-3.503,0.056-5.043c-7.086-1.113-12.529-7.242-12.529-14.637c0-8.179,6.654-14.833,14.833-14.833
			s14.833,6.654,14.833,14.833c0,6.944-4.803,12.773-11.257,14.38c0.016,1.21,0.031,2.419,0.047,3.629
			c0.005,0.492,0.005,0.984,0.01,1.477c9.204-1.714,16.2-9.791,16.2-19.485C500.085,146.064,491.188,137.167,480.252,137.167z"/>
	</g>
	<g>
		<g>
			<g>
				<rect x="19.914" y="159.609" fill="#271F3E" width="136.492" height="154.453"/>
				<path fill="#CDD0E0" d="M157.906,315.563H18.414V158.109h139.492V315.563z M21.414,312.563h133.492V161.109H21.414V312.563z"/>
			</g>
			<g>
				<rect x="38.053" y="175.056" fill="#FFFFFF" width="100.215" height="123.562"/>
				<path fill="#CDD0E0" d="M139.768,300.117H36.553V173.556h103.215V300.117z M39.553,297.117h97.215V176.556H39.553V297.117z"/>
			</g>
			<rect x="48.075" y="187.411" fill="#CDD0E0" width="80.171" height="98.851"/>
		</g>
		<path fill="#FFFFFF" d="M88.222,265.821l0.361-0.743l24.955-32.707l-0.153-0.227l0.107-0.144h-0.205l-10.032-14.797l-15.355-2.212
			l-14.835,2.212l-10.031,14.797h-0.082l0.043,0.057l-0.212,0.313l25.078,32.707L88.222,265.821z M77.498,219.289l7.236-0.887
			l-8.37,9.833L77.498,219.289z M88.096,219.082l10.997,12.919H77.099L88.096,219.082z M100.171,228.638l-8.687-10.203l7.506,0.883
			L100.171,228.638z M99.862,235.001l-11.641,23.957l-11.64-23.957H99.862z M95.412,251.022l7.785-16.021h4.28L95.412,251.022z
			 M109.662,232.001h-5.007h-1.034l-1.389-10.959L109.662,232.001z M74.289,220.745l-1.426,11.256h-1.074h-5.132L74.289,220.745z
			 M68.966,235.001h4.28l7.785,16.021L68.966,235.001z"/>
	</g>
	<g>
		<g>
			<polygon fill="#DADDEA" points="539.491,313.257 474.903,313.257 484.522,298.828 529.872,298.828 			"/>
			<path fill="#CDD0E0" d="M542.294,314.757h-70.193l11.619-17.429h46.955L542.294,314.757z M477.706,311.757h58.982l-7.619-11.429
				h-43.744L477.706,311.757z"/>
		</g>
		<g>
			<path fill="#CDD0E0" d="M542.294,314.757h-70.193l11.619-17.429h46.955L542.294,314.757z M477.706,311.757h58.982l-7.619-11.429
				h-43.744L477.706,311.757z"/>
		</g>
		<path fill="#FFFFFF" d="M553.1,258.345c0-3.939-0.494-7.763-1.41-11.418h-90.599c-0.918,3.655-1.412,7.479-1.412,11.418
			c0,17.313,9.427,32.415,23.42,40.484h46.581C543.674,290.76,553.1,275.657,553.1,258.345z"/>
		<g>
			<path fill="#FFFFFF" d="M552.909,262.359c0.113-1.325,0.19-2.66,0.19-4.015c0-3.939-0.494-7.763-1.41-11.418h-90.599
				c-0.918,3.655-1.412,7.479-1.412,11.418c0,1.413,0.086,2.804,0.209,4.185C484.626,262.277,522.328,262.221,552.909,262.359z"/>
			<path fill="#CDD0E0" d="M458.517,264.043l-0.123-1.381c-0.146-1.646-0.215-3.017-0.215-4.317c0-3.969,0.49-7.933,1.457-11.783
				l0.285-1.135h92.939l0.284,1.136c0.966,3.853,1.455,7.816,1.455,11.782c0,1.263-0.063,2.579-0.196,4.143l-0.117,1.378
				l-1.384-0.006c-10.651-0.048-22.531-0.074-34.355-0.074c-22.388,0-43.215,0.087-58.644,0.244L458.517,264.043z M462.276,248.427
				c-0.729,3.254-1.098,6.584-1.098,9.918c0,0.833,0.03,1.702,0.095,2.671c15.287-0.148,35.547-0.23,57.273-0.23
				c11.314,0,22.679,0.023,32.971,0.068c0.056-0.9,0.082-1.718,0.082-2.509c0-3.331-0.368-6.662-1.096-9.918H462.276z"/>
		</g>
		<g>
			<path fill="#CDD0E0" d="M530.081,300.329h-47.383l-0.349-0.2c-14.909-8.598-24.171-24.608-24.171-41.784
				c0-3.969,0.49-7.934,1.457-11.783l0.285-1.135h92.939l0.284,1.136c0.966,3.853,1.455,7.816,1.455,11.782
				c0,17.177-9.262,33.187-24.171,41.784L530.081,300.329z M483.504,297.329h45.771c13.781-8.109,22.325-23.01,22.325-38.984
				c0-3.331-0.368-6.662-1.096-9.918h-88.228c-0.729,3.253-1.098,6.584-1.098,9.918
				C461.179,274.319,469.724,289.219,483.504,297.329z"/>
		</g>
		<g>
			<path fill="#CDD0E0" d="M545.422,299.914c-3.674-3.007-5.339-5.896-5.088-8.832c0.469-5.491,7.522-9.486,15.689-14.112
				c4.904-2.777,9.975-5.649,14.023-9.049c3.539-2.972,4.993-6.601,4.094-10.221c-0.857-3.452-3.732-6.182-7.323-6.952
				c-2.6-0.555-7.722-0.513-12.878,6.046l-2.359-1.854c4.502-5.726,10.283-8.327,15.866-7.125c4.704,1.009,8.475,4.605,9.606,9.162
				c1.173,4.722-0.678,9.548-5.076,13.24c-4.261,3.577-9.453,6.519-14.475,9.362c-7.119,4.033-13.845,7.842-14.179,11.757
				c-0.158,1.851,1.188,3.955,3.999,6.255L545.422,299.914z"/>
		</g>
	</g>
</g>
</svg>
